# xmcd
#
# Track frame offsets: 
#        150
#        30070
#        44728
#        65913
#        92087
#        111258
#        124804
#        155490
#        175521
#        204963
#        218107
#        240330
#        261386
#        278485
#        300227
#        317106
#        335649
#
# Disc length: 4769 seconds
#
# Revision: 0
# Processed by: cddbd v1.5.1PL0 Copyright (c) Steve Scherf et al.
# Submitted via: ExactAudioCopy v0.95a5
#
DISCID=ea129f11
DTITLE=Various Artist - Everybody Knows What The Blues Is About
DYEAR=2003
DGENRE=Blues
TTITLE0=John Mayall - Looking At Tomorrow (lp\\tape)
TTITLE1=King Biscuit Boy - Mind Over Matter (lp\\tape)
TTITLE2=Gregg Allman Band - Come And Go Blues
TTITLE3=Dire Straits - You And Your Friend
TTITLE4=Gary Moore - Jumpin' At Shadows
TTITLE5=Gregg Allman Band - Brightest Smile In Town
TTITLE6=Chick Corea - Gleve St. Blues (lp\\tape)
TTITLE7=Papa John Creach - St. Louis Blues (lp\\tape)
TTITLE8=Gary Moore - Story Of The Blues
TTITLE9=King Biscuit Boy - The Bum Is Mine (lp\\tape)
TTITLE10=Dire Straits - On Every Street
TTITLE11=Papa John Creach - Evertime I Hear Her Name (lp\\tape)
TTITLE12=Gregg Allman Band - It Ain't No Use
TTITLE13=Gary Moore - Separate Ways
TTITLE14=Dire Straits - Fade To Black
TTITLE15=Roy Buchannan - Done Your Daddy Dirty (lp\\tape)
TTITLE16=Gary Moore - Nothing's The Same
EXTD=
EXTT0=
EXTT1=
EXTT2=
EXTT3=
EXTT4=
EXTT5=
EXTT6=
EXTT7=
EXTT8=
EXTT9=
EXTT10=
EXTT11=
EXTT12=
EXTT13=
EXTT14=
EXTT15=
EXTT16=
PLAYORDER=
